<svg width="246" height="238" viewBox="0 0 246 238" fill="none" xmlns="http://www.w3.org/2000/svg">
<path d="M226.343 66.7319L122.938 234.868L19.5338 66.7309L226.343 66.7319Z" fill="url(#paint0_linear)" stroke="black" stroke-width="3"/>
<path d="M146.372 193.026L99.6056 193.027L122.988 152.526L146.372 193.026Z" stroke="black" stroke-width="3"/>
<path d="M171.12 151.307L124.354 151.307L147.737 110.807L171.12 151.307Z" stroke="black" stroke-width="3"/>
<path d="M195.162 108.88L148.396 108.881L171.778 68.3801L195.162 108.88Z" stroke="black" stroke-width="3"/>
<path d="M95.4597 108.173L48.6938 108.174L72.0762 67.673L95.4597 108.173Z" stroke="black" stroke-width="3"/>
<path d="M120.916 150.6L74.1497 150.6L97.5322 110.099L120.916 150.6Z" stroke="black" stroke-width="3"/>
<path d="M145.664 108.88L98.8986 108.881L122.281 68.3801L145.664 108.88Z" stroke="black" stroke-width="3"/>
<path d="M169.869 3.99915L107.153 12.8703C106.122 13.0161 105.322 13.8384 105.206 14.8695L98.0179 78.9554C97.8487 80.4648 99.1823 81.7131 100.683 81.45L118.175 78.38C119.812 78.093 121.199 79.5892 120.781 81.1928L114.333 105.987C113.899 107.656 115.412 109.181 117.091 108.768L127.936 106.094C129.617 105.68 131.131 107.21 130.693 108.88L120.469 147.821C119.829 150.257 123.045 151.772 124.526 149.733L125.516 148.371L181.376 50.3972C182.311 48.7568 180.951 46.7591 179.076 47.0189L161.105 49.509C159.417 49.7427 158.076 48.1162 158.633 46.5106L172.348 6.99645C172.905 5.38808 171.559 3.76003 169.869 3.99915Z" fill="url(#paint1_linear)"/>
<defs>
<linearGradient id="paint0_linear" x1="122.938" y1="237.731" x2="34.0008" y2="23.8643" gradientUnits="userSpaceOnUse">
<stop stop-color="#BD34FE"/>
<stop offset="1" stop-color="#48C9FF"/>
</linearGradient>
<linearGradient id="paint1_linear" x1="124.873" y1="4.94188" x2="136.87" y2="135.08" gradientUnits="userSpaceOnUse">
<stop stop-color="#FFEA83"/>
<stop offset="0.0833333" stop-color="#FFDD35"/>
<stop offset="1" stop-color="#FFA800"/>
</linearGradient>
</defs>
</svg>
